<svg width="116" height="116" viewBox="0 0 116 116" fill="none" xmlns="http://www.w3.org/2000/svg">
<path d="M87.3624 7.51099L107.532 28.536V108.489H32.1863V108.75H107.789V28.8006L87.3624 7.51099Z" fill="#909090"/>
<path d="M87.1123 7.25H31.929V108.489H107.532V28.5396L87.1087 7.25" fill="#F4F4F4"/>
<path d="M31.3744 12.6875H8.21069V37.4354H81.0732V12.6875H31.3744Z" fill="#7A7B7C"/>
<path d="M81.461 37.0148H8.68188V12.2488H81.461V37.0148Z" fill="#DD2025"/>
<path d="M32.8136 16.4357H28.0757V33.8357H31.8022V27.9669L32.6251 28.014C33.4246 28.0002 34.2167 27.857 34.9704 27.5899C35.6313 27.3626 36.2392 27.0037 36.7576 26.535C37.285 26.0885 37.7008 25.5249 37.9719 24.8892C38.3355 23.8326 38.4654 22.7095 38.3526 21.5977C38.3299 20.8035 38.1907 20.017 37.9393 19.2632C37.7105 18.7192 37.3709 18.2287 36.9421 17.823C36.5134 17.4173 36.0048 17.1054 35.4489 16.907C34.9683 16.733 34.4717 16.6067 33.9663 16.53C33.5836 16.4709 33.1971 16.4395 32.8099 16.4357M32.1248 24.7515H31.8022V19.3865H32.5018C32.8106 19.3642 33.1204 19.4116 33.4084 19.5252C33.6964 19.6388 33.9552 19.8156 34.1657 20.0426C34.6018 20.6263 34.8348 21.3368 34.8291 22.0654C34.8291 22.9571 34.8291 23.7655 34.0243 24.3346C33.4446 24.6535 32.7846 24.7971 32.1248 24.7479M45.4322 16.3886C45.0298 16.3886 44.6383 16.4176 44.3628 16.4285L43.5001 16.4502H40.6726V33.8502H44.0003C45.272 33.8851 46.5382 33.6696 47.7268 33.2159C48.6835 32.8364 49.5306 32.2247 50.1918 31.436C50.8347 30.6401 51.2962 29.7135 51.5439 28.7209C51.8287 27.5966 51.9676 26.4404 51.9572 25.2807C52.0275 23.9111 51.9215 22.538 51.6418 21.1954C51.3764 20.2071 50.8793 19.2962 50.1918 18.5382C49.6524 17.9262 48.9921 17.4325 48.2524 17.0882C47.6173 16.7943 46.9491 16.5777 46.2623 16.443C45.9892 16.3979 45.7126 16.3773 45.4358 16.3814M44.7761 30.653H44.4136V19.546H44.4607C45.208 19.46 45.9642 19.5949 46.6357 19.9339C47.1275 20.3266 47.5282 20.8213 47.8102 21.3839C48.1145 21.976 48.29 22.6258 48.3249 23.2906C48.3576 24.0881 48.3249 24.7406 48.3249 25.2807C48.3397 25.9029 48.2997 26.5252 48.2053 27.1404C48.0936 27.772 47.887 28.383 47.5927 28.9529C47.2595 29.4827 46.8094 29.9291 46.2768 30.2579C45.8296 30.5471 45.2999 30.6821 44.7688 30.6421M63.1838 16.4502H54.3751V33.8502H58.1016V26.9482H62.8141V23.7147H58.1016V19.6837H63.1766V16.4502" fill="#464648"/>
<path d="M78.9562 73.4245C78.9562 73.4245 90.5127 71.3292 90.5127 75.2769C90.5127 79.2245 83.3534 77.6186 78.9562 73.4245ZM70.4121 73.7253C68.576 74.1311 66.7867 74.7251 65.0725 75.498L66.5225 72.2355C67.9725 68.973 69.4769 64.5251 69.4769 64.5251C71.2071 67.4372 73.2203 70.1716 75.4871 72.6886C73.7776 72.9435 72.0834 73.292 70.4121 73.7326V73.7253ZM65.8374 50.1628C65.8374 46.7227 66.9502 45.7838 67.8166 45.7838C68.683 45.7838 69.6581 46.2007 69.6907 49.1877C69.4085 52.1913 68.7796 55.152 67.8166 58.011C66.4975 55.6106 65.8149 52.9126 65.8337 50.1737L65.8374 50.1628ZM48.9847 88.2834C45.4395 86.1627 56.4196 79.6341 58.4097 79.4239C58.3989 79.4275 52.6967 90.5019 48.9847 88.2834ZM93.8876 75.7445C93.8513 75.382 93.5251 71.3691 86.3839 71.5395C83.4073 71.4915 80.4321 71.7013 77.4917 72.1666C74.6434 69.2971 72.1906 66.0604 70.1982 62.5422C71.4535 58.9151 72.2131 55.1351 72.4566 51.3047C72.3515 46.9547 71.3111 44.4607 67.9761 44.497C64.6411 44.5332 64.1554 47.4513 64.594 51.7941C65.0236 54.7124 65.8341 57.5618 67.0046 60.2693C67.0046 60.2693 65.464 65.0652 63.4267 69.8357C61.3895 74.6062 59.9975 77.1075 59.9975 77.1075C56.4549 78.2607 53.1199 79.9741 50.1194 82.1825C47.1324 84.9628 45.918 87.098 47.4912 89.2331C48.847 91.0746 53.5921 91.4915 57.8334 85.9343C60.0869 83.0641 62.1456 80.0462 63.9958 76.9009C63.9958 76.9009 70.4629 75.1282 72.4747 74.6425C74.4866 74.1567 76.919 73.7725 76.919 73.7725C76.919 73.7725 82.8241 79.7138 88.519 79.5036C94.2139 79.2934 93.9383 76.0997 93.9021 75.7517" fill="#DD2025"/>
<path d="M86.8333 7.52905V28.8187H107.253L86.8333 7.52905Z" fill="#909090"/>
<path d="M87.1123 7.25V28.5396H107.532L87.1123 7.25Z" fill="#F4F4F4"/>
<path d="M32.5343 16.1567H27.7964V33.5567H31.5374V27.6914L32.3639 27.7386C33.1635 27.7248 33.9555 27.5816 34.7093 27.3144C35.3701 27.0871 35.978 26.7282 36.4964 26.2596C37.0199 25.8118 37.4319 25.2484 37.6999 24.6138C38.0635 23.5571 38.1933 22.4341 38.0805 21.3223C38.0579 20.5281 37.9186 19.7415 37.6673 18.9878C37.4384 18.4437 37.0988 17.9532 36.6701 17.5476C36.2413 17.1419 35.7328 16.83 35.1769 16.6316C34.694 16.4559 34.195 16.3284 33.687 16.2509C33.3043 16.1919 32.9179 16.1604 32.5306 16.1567M31.8455 24.4724H31.5229V19.1074H32.2261C32.5349 19.0852 32.8447 19.1326 33.1327 19.2461C33.4207 19.3597 33.6795 19.5365 33.89 19.7636C34.3262 20.3472 34.5592 21.0577 34.5534 21.7863C34.5534 22.6781 34.5534 23.4864 33.7486 24.0556C33.1689 24.3744 32.509 24.518 31.8491 24.4688M45.1529 16.1096C44.7505 16.1096 44.359 16.1386 44.0835 16.1494L43.2316 16.1712H40.4041V33.5712H43.7319C45.0036 33.6061 46.2698 33.3905 47.4584 32.9368C48.4151 32.5574 49.2622 31.9457 49.9234 31.1569C50.5663 30.3611 51.0278 29.4345 51.2755 28.4418C51.5603 27.3176 51.6992 26.1614 51.6888 25.0017C51.7591 23.632 51.6531 22.259 51.3734 20.9163C51.108 19.928 50.6109 19.0172 49.9234 18.2592C49.384 17.6472 48.7236 17.1535 47.984 16.8092C47.3488 16.5153 46.6807 16.2986 45.9939 16.1639C45.7208 16.1188 45.4442 16.0982 45.1674 16.1023M44.5076 30.3739H44.1451V19.2669H44.1923C44.9396 19.181 45.6957 19.3158 46.3673 19.6548C46.859 20.0475 47.2598 20.5422 47.5418 21.1048C47.8461 21.6969 48.0215 22.3468 48.0565 23.0116C48.0891 23.8091 48.0565 24.4616 48.0565 25.0017C48.0713 25.6239 48.0312 26.2462 47.9369 26.8613C47.8252 27.4929 47.6186 28.104 47.3243 28.6738C46.9911 29.2036 46.5409 29.6501 46.0084 29.9788C45.5611 30.2681 45.0315 30.403 44.5004 30.3631M62.9045 16.1712H54.0958V33.5712H57.8223V26.6692H62.5348V23.4357H57.8223V19.4047H62.8973V16.1712" fill="white"/>
</svg>
