<svg width="93" height="65" viewBox="0 0 93 65" fill="none" xmlns="http://www.w3.org/2000/svg">
<path opacity="0.3" d="M77.6185 28.0637C78.2105 26.5206 78.5425 24.8333 78.5425 23.0739C78.5425 15.4307 72.3342 9.22957 64.6821 9.22957C61.8378 9.22957 59.1812 10.0948 56.9867 11.5658C52.9873 4.64363 45.5229 0 36.9612 0C24.198 0 13.8604 10.3256 13.8604 23.0739C13.8604 23.4633 13.8749 23.8527 13.8893 24.242C5.80406 27.083 0 34.7839 0 43.8404C0 55.3053 9.31249 64.607 20.7907 64.607H73.9224C84.13 64.607 92.403 56.3436 92.403 46.1478C92.403 37.2211 86.0503 29.7654 77.6185 28.0637ZM56.799 36.9183H47.3565V53.07C47.3565 54.3391 46.317 55.3774 45.0465 55.3774H38.1162C36.8457 55.3774 35.8062 54.3391 35.8062 53.07V36.9183H26.3637C24.2991 36.9183 23.274 34.4378 24.7322 32.9813L39.9499 17.7813C40.845 16.8872 42.3177 16.8872 43.2128 17.7813L58.4305 32.9813C59.8887 34.4378 58.8491 36.9183 56.799 36.9183Z" fill="white"/>
</svg>
